<svg width="639" height="593" viewBox="0 0 639 593" fill="none" xmlns="http://www.w3.org/2000/svg">
<circle cx="327.5" cy="296.5" r="295" stroke="#063F57" stroke-width="3" stroke-dasharray="10 10"/>
<rect x="1" y="109" width="309" height="411" rx="9" fill="#090E0C" stroke="white" stroke-width="2"/>
<rect x="11" y="240" width="140" height="2" rx="1" fill="white"/>
<rect x="11" y="256" width="140" height="2" rx="1" fill="white"/>
<rect x="11" y="208" width="140" height="2" rx="1" fill="white"/>
<rect x="11" y="224" width="140" height="2" rx="1" fill="white"/>
<rect x="11" y="272" width="140" height="2" rx="1" fill="white"/>
<rect x="11" y="295" width="288" height="2" rx="1" fill="white"/>
<rect x="11" y="311" width="288" height="2" rx="1" fill="white"/>
<rect x="11" y="327" width="288" height="2" rx="1" fill="white"/>
<rect x="11" y="343" width="288" height="2" rx="1" fill="white"/>
<rect x="11" y="359" width="288" height="2" rx="1" fill="white"/>
<rect x="11" y="375" width="288" height="2" rx="1" fill="white"/>
<path fill-rule="evenodd" clip-rule="evenodd" d="M230.5 247.2C237.901 247.2 243.9 241.201 243.9 233.8C243.9 226.399 237.901 220.4 230.5 220.4C223.099 220.4 217.1 226.399 217.1 233.8C217.1 241.201 223.099 247.2 230.5 247.2ZM230.5 240.5C234.2 240.5 237.2 237.5 237.2 233.8C237.2 230.1 234.2 227.1 230.5 227.1C226.8 227.1 223.8 230.1 223.8 233.8C223.8 237.5 226.8 240.5 230.5 240.5Z" fill="white"/>
<path fill-rule="evenodd" clip-rule="evenodd" d="M250.352 267.487C258.63 261.387 264 251.571 264 240.5C264 221.998 249.002 207 230.5 207C211.998 207 197 221.998 197 240.5C197 251.571 202.37 261.387 210.648 267.487C210.8 267.599 210.953 267.71 211.107 267.819C212.611 268.889 214.207 269.837 215.88 270.65C220.298 272.796 225.258 274 230.5 274C235.742 274 240.702 272.796 245.12 270.65C245.21 270.606 245.299 270.562 245.389 270.518C247.135 269.65 248.795 268.634 250.352 267.487ZM248.016 260.784C253.702 255.87 257.3 248.605 257.3 240.5C257.3 225.699 245.301 213.7 230.5 213.7C215.699 213.7 203.7 225.699 203.7 240.5C203.7 248.605 207.298 255.87 212.984 260.784C216.432 254.675 222.984 250.55 230.5 250.55C238.016 250.55 244.568 254.675 248.016 260.784ZM242.415 264.512C240.188 260.199 235.689 257.25 230.5 257.25C225.311 257.25 220.812 260.199 218.585 264.512C222.174 266.297 226.22 267.3 230.5 267.3C234.78 267.3 238.826 266.297 242.415 264.512Z" fill="white"/>
<path d="M169 461L220.84 426.178L236.84 441.318L277.16 407C277.16 407 279.5 410.383 281 412.551" stroke="white" stroke-width="3"/>
<circle cx="81.5" cy="433.5" r="40.5" fill="white"/>
<path d="M122 433.5C122 439.919 120.474 446.246 117.549 451.959C114.623 457.672 110.382 462.608 105.174 466.36C99.9657 470.112 93.9404 472.573 87.5948 473.539C81.2491 474.505 74.7647 473.949 68.6762 471.916C62.5876 469.884 57.0694 466.433 52.5764 461.849C48.0834 457.265 44.7443 451.679 42.8344 445.551C40.9245 439.423 40.4985 432.928 41.5915 426.603C42.6846 420.278 45.2653 414.304 49.121 409.172L81.5 433.5H122Z" fill="#C2C2C2"/>
<path d="M122 433.5C122 441.717 119.501 449.74 114.834 456.503C110.167 463.266 103.553 468.449 95.8708 471.365C88.1885 474.28 79.8011 474.79 71.8222 472.827C63.8433 470.863 56.6504 466.519 51.1985 460.371L81.5 433.5H122Z" fill="#6C6C6C"/>
<rect x="349" y="109" width="289" height="49" rx="4" fill="black" stroke="white" stroke-width="2"/>
<circle cx="377.5" cy="133.5" r="12.5" fill="white"/>
<path d="M403.999 134H579.001" stroke="white" stroke-width="2" stroke-linecap="round"/>
<rect x="599.5" y="121.5" width="24" height="24" rx="2.5" fill="black" stroke="white"/>
<path fill-rule="evenodd" clip-rule="evenodd" d="M612 130C612 132.209 610.209 134 608 134C605.791 134 604 132.209 604 130C604 127.791 605.791 126 608 126C610.209 126 612 127.791 612 130ZM610 130C610 131.105 609.105 132 608 132C606.895 132 606 131.105 606 130C606 128.895 606.895 128 608 128C609.105 128 610 128.895 610 130Z" fill="white"/>
<path d="M615.994 134.584L620.294 130.292L621.706 131.708L615.994 137.41L613.288 134.706L614.702 133.292L615.994 134.584Z" fill="white"/>
<path d="M612 141H614C614 137.686 611.314 135 608 135C604.686 135 602 137.686 602 141H604C604 138.791 605.791 137 608 137C610.209 137 612 138.791 612 141Z" fill="white"/>
<rect x="349" y="172" width="289" height="49" rx="4" fill="black" stroke="white" stroke-width="2"/>
<circle cx="377.5" cy="196.5" r="12.5" fill="white"/>
<path d="M403.999 197H579.001" stroke="white" stroke-width="2" stroke-linecap="round"/>
<rect x="599.5" y="184.5" width="24" height="24" rx="2.5" fill="black" stroke="white"/>
<path fill-rule="evenodd" clip-rule="evenodd" d="M612 193C612 195.209 610.209 197 608 197C605.791 197 604 195.209 604 193C604 190.791 605.791 189 608 189C610.209 189 612 190.791 612 193ZM610 193C610 194.105 609.105 195 608 195C606.895 195 606 194.105 606 193C606 191.895 606.895 191 608 191C609.105 191 610 191.895 610 193Z" fill="white"/>
<path d="M615.994 197.584L620.294 193.292L621.706 194.708L615.994 200.41L613.288 197.706L614.702 196.292L615.994 197.584Z" fill="white"/>
<path d="M612 204H614C614 200.686 611.314 198 608 198C604.686 198 602 200.686 602 204H604C604 201.791 605.791 200 608 200C610.209 200 612 201.791 612 204Z" fill="white"/>
<rect x="349" y="235" width="289" height="49" rx="4" fill="black" stroke="white" stroke-width="2"/>
<circle cx="377.5" cy="259.5" r="12.5" fill="white"/>
<path d="M403.999 260H579.001" stroke="white" stroke-width="2" stroke-linecap="round"/>
<rect x="599.5" y="247.5" width="24" height="24" rx="2.5" fill="black" stroke="white"/>
<path fill-rule="evenodd" clip-rule="evenodd" d="M612 256C612 258.209 610.209 260 608 260C605.791 260 604 258.209 604 256C604 253.791 605.791 252 608 252C610.209 252 612 253.791 612 256ZM610 256C610 257.105 609.105 258 608 258C606.895 258 606 257.105 606 256C606 254.895 606.895 254 608 254C609.105 254 610 254.895 610 256Z" fill="white"/>
<path d="M615.994 260.584L620.294 256.292L621.706 257.708L615.994 263.41L613.288 260.706L614.702 259.292L615.994 260.584Z" fill="white"/>
<path d="M612 267H614C614 263.686 611.314 261 608 261C604.686 261 602 263.686 602 267H604C604 264.791 605.791 263 608 263C610.209 263 612 264.791 612 267Z" fill="white"/>
<path d="M456 410L527 481" stroke="#EE6363" stroke-width="10" stroke-linecap="round"/>
<circle cx="412.5" cy="369.5" r="59.5" stroke="#EE6363" stroke-width="10"/>
<path d="M404.16 370C408.361 370 411.46 366.922 411.46 362.75C411.46 358.578 408.361 355.5 404.16 355.5C399.959 355.5 396.86 358.578 396.86 362.75C396.86 366.922 399.955 370 404.16 370Z" fill="black"/>
<path d="M434.4 359.125H419.8V366.375H434.4V359.125Z" fill="black"/>
<path d="M434.4 373.625H423.45V380.875H434.4V373.625Z" fill="black"/>
<path d="M404.16 372.719C411.602 372.719 417.72 379.519 417.72 384.5H390.6C390.6 379.519 396.717 372.719 404.16 372.719Z" fill="black"/>
<path fill-rule="evenodd" clip-rule="evenodd" d="M441.7 341H383.3C379.274 341 376 344.049 376 347.797V392.203C376 395.951 379.274 399 383.3 399H441.7C445.726 399 449 395.951 449 392.203V347.797C449 344.049 445.726 341 441.7 341ZM441.7 391.75L383.3 391.71V348.25L441.7 348.29V391.75Z" fill="black"/>
<path d="M124.944 162L121.138 155.576H118.3V162H116.76V146.622H121.38C123.096 146.622 124.394 147.033 125.274 147.854C126.169 148.675 126.616 149.753 126.616 151.088C126.616 152.203 126.293 153.156 125.648 153.948C125.017 154.725 124.079 155.231 122.832 155.466L126.792 162H124.944ZM118.3 154.322H121.402C122.605 154.322 123.507 154.029 124.108 153.442C124.724 152.855 125.032 152.071 125.032 151.088C125.032 150.076 124.739 149.299 124.152 148.756C123.565 148.199 122.641 147.92 121.38 147.92H118.3V154.322ZM131.212 147.876V153.618H137.042V154.894H131.212V160.724H137.702V162H129.672V146.6H137.702V147.876H131.212ZM145.401 162.154C144.389 162.154 143.494 161.978 142.717 161.626C141.954 161.274 141.353 160.783 140.913 160.152C140.473 159.521 140.238 158.817 140.209 158.04H141.837C141.91 158.788 142.24 159.448 142.827 160.02C143.413 160.577 144.271 160.856 145.401 160.856C146.442 160.856 147.263 160.592 147.865 160.064C148.481 159.521 148.789 158.839 148.789 158.018C148.789 157.358 148.62 156.83 148.283 156.434C147.945 156.023 147.527 155.723 147.029 155.532C146.53 155.327 145.841 155.107 144.961 154.872C143.934 154.593 143.12 154.322 142.519 154.058C141.917 153.794 141.404 153.383 140.979 152.826C140.553 152.269 140.341 151.513 140.341 150.56C140.341 149.768 140.546 149.064 140.957 148.448C141.367 147.817 141.947 147.326 142.695 146.974C143.443 146.622 144.301 146.446 145.269 146.446C146.691 146.446 147.835 146.798 148.701 147.502C149.581 148.191 150.087 149.086 150.219 150.186H148.547C148.444 149.555 148.099 148.998 147.513 148.514C146.926 148.015 146.134 147.766 145.137 147.766C144.213 147.766 143.443 148.015 142.827 148.514C142.211 148.998 141.903 149.665 141.903 150.516C141.903 151.161 142.071 151.682 142.409 152.078C142.746 152.474 143.164 152.775 143.663 152.98C144.176 153.185 144.865 153.405 145.731 153.64C146.728 153.919 147.535 154.197 148.151 154.476C148.767 154.74 149.287 155.151 149.713 155.708C150.138 156.265 150.351 157.013 150.351 157.952C150.351 158.671 150.16 159.353 149.779 159.998C149.397 160.643 148.833 161.164 148.085 161.56C147.337 161.956 146.442 162.154 145.401 162.154ZM154.8 146.622V156.302C154.8 157.827 155.16 158.957 155.878 159.69C156.612 160.423 157.609 160.79 158.87 160.79C160.132 160.79 161.114 160.431 161.818 159.712C162.537 158.979 162.896 157.842 162.896 156.302V146.622H164.436V156.28C164.436 158.231 163.916 159.697 162.874 160.68C161.848 161.663 160.506 162.154 158.848 162.154C157.191 162.154 155.842 161.663 154.8 160.68C153.774 159.697 153.26 158.231 153.26 156.28V146.622H154.8ZM182.897 146.82V162H181.357V149.878L175.945 162H174.823L169.411 149.922V162H167.871V146.82H169.499L175.373 159.976L181.247 146.82H182.897ZM187.931 147.876V153.618H193.761V154.894H187.931V160.724H194.421V162H186.391V146.6H194.421V147.876H187.931Z" fill="white"/>
</svg>
