<svg width="766" height="456" viewBox="0 0 766 456" fill="none" xmlns="http://www.w3.org/2000/svg">
<rect x="1" y="1" width="764" height="454" rx="9" stroke="black" stroke-width="2" stroke-dasharray="10 10"/>
<rect x="34" y="35" width="286" height="390" rx="9" stroke="black" stroke-width="2"/>
<circle cx="68.5" cy="145.5" r="13.5" fill="black"/>
<circle cx="68.5" cy="186.5" r="13.5" fill="black"/>
<circle cx="68.5" cy="227.5" r="13.5" fill="black"/>
<circle cx="68.5" cy="268.5" r="13.5" fill="black"/>
<circle cx="68.5" cy="309.5" r="13.5" fill="black"/>
<circle cx="68.5" cy="350.5" r="13.5" fill="black"/>
<circle cx="68.5" cy="391.5" r="13.5" fill="black"/>
<path d="M62.6667 141.188L72 150.375L69.3333 153L60 143.813L62.6667 141.188Z" fill="#70FF00"/>
<path d="M69.3333 147.75L85.3333 132L88 134.625L72 150.375L69.3333 147.75Z" fill="#70FF00"/>
<path d="M62.6667 182.188L72 191.375L69.3333 194L60 184.813L62.6667 182.188Z" fill="#70FF00"/>
<path d="M69.3333 188.75L85.3333 173L88 175.625L72 191.375L69.3333 188.75Z" fill="#70FF00"/>
<path d="M62.6667 223.188L72 232.375L69.3333 235L60 225.813L62.6667 223.188Z" fill="#70FF00"/>
<path d="M69.3333 229.75L85.3333 214L88 216.625L72 232.375L69.3333 229.75Z" fill="#70FF00"/>
<path d="M62.6667 305.188L72 314.375L69.3333 317L60 307.813L62.6667 305.188Z" fill="#70FF00"/>
<path d="M69.3333 311.75L85.3333 296L88 298.625L72 314.375L69.3333 311.75Z" fill="#70FF00"/>
<path d="M62.6667 346.188L72 355.375L69.3333 358L60 348.813L62.6667 346.188Z" fill="#70FF00"/>
<path d="M69.3333 352.75L85.3333 337L88 339.625L72 355.375L69.3333 352.75Z" fill="#70FF00"/>
<rect x="101" y="135" width="198" height="5" rx="2.5" fill="black"/>
<rect x="101" y="148" width="131" height="5" rx="2.5" fill="black"/>
<rect x="101" y="175" width="198" height="5" rx="2.5" fill="black"/>
<rect x="101" y="188" width="131" height="5" rx="2.5" fill="black"/>
<rect x="101" y="215" width="198" height="5" rx="2.5" fill="black"/>
<rect x="101" y="228" width="131" height="5" rx="2.5" fill="black"/>
<rect x="101" y="261" width="198" height="5" rx="2.5" fill="black"/>
<rect x="101" y="274" width="131" height="5" rx="2.5" fill="black"/>
<rect x="101" y="301" width="198" height="5" rx="2.5" fill="black"/>
<rect x="101" y="314" width="131" height="5" rx="2.5" fill="black"/>
<rect x="101" y="341" width="198" height="5" rx="2.5" fill="black"/>
<rect x="101" y="354" width="131" height="5" rx="2.5" fill="black"/>
<rect x="101" y="383" width="198" height="5" rx="2.5" fill="black"/>
<rect x="101" y="396" width="131" height="5" rx="2.5" fill="black"/>
<rect x="55" y="53" width="140" height="58" rx="2" fill="black"/>
<rect x="204" y="53" width="95" height="16" rx="2" fill="black"/>
<rect x="204" y="74" width="95" height="16" rx="2" fill="black"/>
<rect x="204" y="95" width="95" height="16" rx="2" fill="black"/>
<path d="M370.88 61.06C372.4 61.06 373.713 61.3467 374.82 61.92C375.94 62.48 376.793 63.2867 377.38 64.34C377.98 65.3933 378.28 66.6333 378.28 68.06C378.28 69.4867 377.98 70.7267 377.38 71.78C376.793 72.82 375.94 73.62 374.82 74.18C373.713 74.7267 372.4 75 370.88 75H366.54V61.06H370.88ZM370.88 73.5C372.68 73.5 374.053 73.0267 375 72.08C375.947 71.12 376.42 69.78 376.42 68.06C376.42 66.3267 375.94 64.9733 374.98 64C374.033 63.0267 372.667 62.54 370.88 62.54H368.36V73.5H370.88ZM380.001 69.48C380.001 68.36 380.227 67.38 380.681 66.54C381.134 65.6867 381.754 65.0267 382.541 64.56C383.341 64.0933 384.227 63.86 385.201 63.86C386.161 63.86 386.994 64.0667 387.701 64.48C388.407 64.8933 388.934 65.4133 389.281 66.04V64.04H391.121V75H389.281V72.96C388.921 73.6 388.381 74.1333 387.661 74.56C386.954 74.9733 386.127 75.18 385.181 75.18C384.207 75.18 383.327 74.94 382.541 74.46C381.754 73.98 381.134 73.3067 380.681 72.44C380.227 71.5733 380.001 70.5867 380.001 69.48ZM389.281 69.5C389.281 68.6733 389.114 67.9533 388.781 67.34C388.447 66.7267 387.994 66.26 387.421 65.94C386.861 65.6067 386.241 65.44 385.561 65.44C384.881 65.44 384.261 65.6 383.701 65.92C383.141 66.24 382.694 66.7067 382.361 67.32C382.027 67.9333 381.861 68.6533 381.861 69.48C381.861 70.32 382.027 71.0533 382.361 71.68C382.694 72.2933 383.141 72.7667 383.701 73.1C384.261 73.42 384.881 73.58 385.561 73.58C386.241 73.58 386.861 73.42 387.421 73.1C387.994 72.7667 388.447 72.2933 388.781 71.68C389.114 71.0533 389.281 70.3267 389.281 69.5ZM396.416 65.54V72C396.416 72.5333 396.53 72.9133 396.756 73.14C396.983 73.3533 397.376 73.46 397.936 73.46H399.276V75H397.636C396.623 75 395.863 74.7667 395.356 74.3C394.85 73.8333 394.596 73.0667 394.596 72V65.54H393.176V64.04H394.596V61.28H396.416V64.04H399.276V65.54H396.416ZM400.801 69.48C400.801 68.36 401.028 67.38 401.481 66.54C401.935 65.6867 402.555 65.0267 403.341 64.56C404.141 64.0933 405.028 63.86 406.001 63.86C406.961 63.86 407.795 64.0667 408.501 64.48C409.208 64.8933 409.735 65.4133 410.081 66.04V64.04H411.921V75H410.081V72.96C409.721 73.6 409.181 74.1333 408.461 74.56C407.755 74.9733 406.928 75.18 405.981 75.18C405.008 75.18 404.128 74.94 403.341 74.46C402.555 73.98 401.935 73.3067 401.481 72.44C401.028 71.5733 400.801 70.5867 400.801 69.48ZM410.081 69.5C410.081 68.6733 409.915 67.9533 409.581 67.34C409.248 66.7267 408.795 66.26 408.221 65.94C407.661 65.6067 407.041 65.44 406.361 65.44C405.681 65.44 405.061 65.6 404.501 65.92C403.941 66.24 403.495 66.7067 403.161 67.32C402.828 67.9333 402.661 68.6533 402.661 69.48C402.661 70.32 402.828 71.0533 403.161 71.68C403.495 72.2933 403.941 72.7667 404.501 73.1C405.061 73.42 405.681 73.58 406.361 73.58C407.041 73.58 407.661 73.42 408.221 73.1C408.795 72.7667 409.248 72.2933 409.581 71.68C409.915 71.0533 410.081 70.3267 410.081 69.5ZM428.569 71.9H422.489L421.369 75H419.449L424.489 61.14H426.589L431.609 75H429.689L428.569 71.9ZM428.049 70.42L425.529 63.38L423.009 70.42H428.049ZM439.146 63.84C440.479 63.84 441.559 64.2467 442.386 65.06C443.212 65.86 443.626 67.02 443.626 68.54V75H441.826V68.8C441.826 67.7067 441.552 66.8733 441.006 66.3C440.459 65.7133 439.712 65.42 438.766 65.42C437.806 65.42 437.039 65.72 436.466 66.32C435.906 66.92 435.626 67.7933 435.626 68.94V75H433.806V64.04H435.626V65.6C435.986 65.04 436.472 64.6067 437.086 64.3C437.712 63.9933 438.399 63.84 439.146 63.84ZM445.919 69.48C445.919 68.36 446.145 67.38 446.599 66.54C447.052 65.6867 447.672 65.0267 448.459 64.56C449.259 64.0933 450.145 63.86 451.119 63.86C452.079 63.86 452.912 64.0667 453.619 64.48C454.325 64.8933 454.852 65.4133 455.199 66.04V64.04H457.039V75H455.199V72.96C454.839 73.6 454.299 74.1333 453.579 74.56C452.872 74.9733 452.045 75.18 451.099 75.18C450.125 75.18 449.245 74.94 448.459 74.46C447.672 73.98 447.052 73.3067 446.599 72.44C446.145 71.5733 445.919 70.5867 445.919 69.48ZM455.199 69.5C455.199 68.6733 455.032 67.9533 454.699 67.34C454.365 66.7267 453.912 66.26 453.339 65.94C452.779 65.6067 452.159 65.44 451.479 65.44C450.799 65.44 450.179 65.6 449.619 65.92C449.059 66.24 448.612 66.7067 448.279 67.32C447.945 67.9333 447.779 68.6533 447.779 69.48C447.779 70.32 447.945 71.0533 448.279 71.68C448.612 72.2933 449.059 72.7667 449.619 73.1C450.179 73.42 450.799 73.58 451.479 73.58C452.159 73.58 452.779 73.42 453.339 73.1C453.912 72.7667 454.365 72.2933 454.699 71.68C455.032 71.0533 455.199 70.3267 455.199 69.5ZM461.934 60.2V75H460.114V60.2H461.934ZM474.476 64.04L467.876 80.16H465.996L468.156 74.88L463.736 64.04H465.756L469.196 72.92L472.596 64.04H474.476ZM478.526 65.54V72C478.526 72.5333 478.639 72.9133 478.866 73.14C479.092 73.3533 479.486 73.46 480.046 73.46H481.386V75H479.746C478.732 75 477.972 74.7667 477.466 74.3C476.959 73.8333 476.706 73.0667 476.706 72V65.54H475.286V64.04H476.706V61.28H478.526V64.04H481.386V65.54H478.526ZM484.531 62.26C484.184 62.26 483.891 62.14 483.651 61.9C483.411 61.66 483.291 61.3667 483.291 61.02C483.291 60.6733 483.411 60.38 483.651 60.14C483.891 59.9 484.184 59.78 484.531 59.78C484.864 59.78 485.144 59.9 485.371 60.14C485.611 60.38 485.731 60.6733 485.731 61.02C485.731 61.3667 485.611 61.66 485.371 61.9C485.144 62.14 484.864 62.26 484.531 62.26ZM485.411 64.04V75H483.591V64.04H485.411ZM487.833 69.5C487.833 68.3667 488.059 67.38 488.513 66.54C488.966 65.6867 489.593 65.0267 490.393 64.56C491.206 64.0933 492.133 63.86 493.173 63.86C494.519 63.86 495.626 64.1867 496.493 64.84C497.373 65.4933 497.953 66.4 498.233 67.56H496.273C496.086 66.8933 495.719 66.3667 495.173 65.98C494.639 65.5933 493.973 65.4 493.173 65.4C492.133 65.4 491.293 65.76 490.653 66.48C490.013 67.1867 489.693 68.1933 489.693 69.5C489.693 70.82 490.013 71.84 490.653 72.56C491.293 73.28 492.133 73.64 493.173 73.64C493.973 73.64 494.639 73.4533 495.173 73.08C495.706 72.7067 496.073 72.1733 496.273 71.48H498.233C497.939 72.6 497.353 73.5 496.473 74.18C495.593 74.8467 494.493 75.18 493.173 75.18C492.133 75.18 491.206 74.9467 490.393 74.48C489.593 74.0133 488.966 73.3533 488.513 72.5C488.059 71.6467 487.833 70.6467 487.833 69.5ZM504.541 75.18C503.701 75.18 502.948 75.04 502.281 74.76C501.614 74.4667 501.088 74.0667 500.701 73.56C500.314 73.04 500.101 72.4467 500.061 71.78H501.941C501.994 72.3267 502.248 72.7733 502.701 73.12C503.168 73.4667 503.774 73.64 504.521 73.64C505.214 73.64 505.761 73.4867 506.161 73.18C506.561 72.8733 506.761 72.4867 506.761 72.02C506.761 71.54 506.548 71.1867 506.121 70.96C505.694 70.72 505.034 70.4867 504.141 70.26C503.328 70.0467 502.661 69.8333 502.141 69.62C501.634 69.3933 501.194 69.0667 500.821 68.64C500.461 68.2 500.281 67.6267 500.281 66.92C500.281 66.36 500.448 65.8467 500.781 65.38C501.114 64.9133 501.588 64.5467 502.201 64.28C502.814 64 503.514 63.86 504.301 63.86C505.514 63.86 506.494 64.1667 507.241 64.78C507.988 65.3933 508.388 66.2333 508.441 67.3H506.621C506.581 66.7267 506.348 66.2667 505.921 65.92C505.508 65.5733 504.948 65.4 504.241 65.4C503.588 65.4 503.068 65.54 502.681 65.82C502.294 66.1 502.101 66.4667 502.101 66.92C502.101 67.28 502.214 67.58 502.441 67.82C502.681 68.0467 502.974 68.2333 503.321 68.38C503.681 68.5133 504.174 68.6667 504.801 68.84C505.588 69.0533 506.228 69.2667 506.721 69.48C507.214 69.68 507.634 69.9867 507.981 70.4C508.341 70.8133 508.528 71.3533 508.541 72.02C508.541 72.62 508.374 73.16 508.041 73.64C507.708 74.12 507.234 74.5 506.621 74.78C506.021 75.0467 505.328 75.18 504.541 75.18ZM526.842 68.46H522.582V72.78H520.882V68.46H516.642V66.92H520.882V62.58H522.582V66.92H526.842V68.46ZM543.667 71.9H537.587L536.467 75H534.547L539.587 61.14H541.687L546.707 75H544.787L543.667 71.9ZM543.147 70.42L540.627 63.38L538.107 70.42H543.147ZM550.723 65.82C551.043 65.1933 551.497 64.7067 552.083 64.36C552.683 64.0133 553.41 63.84 554.263 63.84V65.72H553.783C551.743 65.72 550.723 66.8267 550.723 69.04V75H548.903V64.04H550.723V65.82ZM558.584 65.54V72C558.584 72.5333 558.698 72.9133 558.924 73.14C559.151 73.3533 559.544 73.46 560.104 73.46H561.444V75H559.804C558.791 75 558.031 74.7667 557.524 74.3C557.018 73.8333 556.764 73.0667 556.764 72V65.54H555.344V64.04H556.764V61.28H558.584V64.04H561.444V65.54H558.584ZM564.589 62.26C564.243 62.26 563.949 62.14 563.709 61.9C563.469 61.66 563.349 61.3667 563.349 61.02C563.349 60.6733 563.469 60.38 563.709 60.14C563.949 59.9 564.243 59.78 564.589 59.78C564.923 59.78 565.203 59.9 565.429 60.14C565.669 60.38 565.789 60.6733 565.789 61.02C565.789 61.3667 565.669 61.66 565.429 61.9C565.203 62.14 564.923 62.26 564.589 62.26ZM565.469 64.04V75H563.649V64.04H565.469ZM573.031 65.54H570.731V75H568.911V65.54H567.491V64.04H568.911V63.26C568.911 62.0333 569.225 61.14 569.851 60.58C570.491 60.0067 571.511 59.72 572.911 59.72V61.24C572.111 61.24 571.545 61.4 571.211 61.72C570.891 62.0267 570.731 62.54 570.731 63.26V64.04H573.031V65.54ZM576.093 62.26C575.747 62.26 575.453 62.14 575.213 61.9C574.973 61.66 574.853 61.3667 574.853 61.02C574.853 60.6733 574.973 60.38 575.213 60.14C575.453 59.9 575.747 59.78 576.093 59.78C576.427 59.78 576.707 59.9 576.933 60.14C577.173 60.38 577.293 60.6733 577.293 61.02C577.293 61.3667 577.173 61.66 576.933 61.9C576.707 62.14 576.427 62.26 576.093 62.26ZM576.973 64.04V75H575.153V64.04H576.973ZM579.395 69.5C579.395 68.3667 579.622 67.38 580.075 66.54C580.528 65.6867 581.155 65.0267 581.955 64.56C582.768 64.0933 583.695 63.86 584.735 63.86C586.082 63.86 587.188 64.1867 588.055 64.84C588.935 65.4933 589.515 66.4 589.795 67.56H587.835C587.648 66.8933 587.282 66.3667 586.735 65.98C586.202 65.5933 585.535 65.4 584.735 65.4C583.695 65.4 582.855 65.76 582.215 66.48C581.575 67.1867 581.255 68.1933 581.255 69.5C581.255 70.82 581.575 71.84 582.215 72.56C582.855 73.28 583.695 73.64 584.735 73.64C585.535 73.64 586.202 73.4533 586.735 73.08C587.268 72.7067 587.635 72.1733 587.835 71.48H589.795C589.502 72.6 588.915 73.5 588.035 74.18C587.155 74.8467 586.055 75.18 584.735 75.18C583.695 75.18 582.768 74.9467 581.955 74.48C581.155 74.0133 580.528 73.3533 580.075 72.5C579.622 71.6467 579.395 70.6467 579.395 69.5ZM593.164 62.26C592.817 62.26 592.524 62.14 592.284 61.9C592.044 61.66 591.924 61.3667 591.924 61.02C591.924 60.6733 592.044 60.38 592.284 60.14C592.524 59.9 592.817 59.78 593.164 59.78C593.497 59.78 593.777 59.9 594.004 60.14C594.244 60.38 594.364 60.6733 594.364 61.02C594.364 61.3667 594.244 61.66 594.004 61.9C593.777 62.14 593.497 62.26 593.164 62.26ZM594.044 64.04V75H592.224V64.04H594.044ZM596.465 69.48C596.465 68.36 596.692 67.38 597.145 66.54C597.599 65.6867 598.219 65.0267 599.005 64.56C599.805 64.0933 600.692 63.86 601.665 63.86C602.625 63.86 603.459 64.0667 604.165 64.48C604.872 64.8933 605.399 65.4133 605.745 66.04V64.04H607.585V75H605.745V72.96C605.385 73.6 604.845 74.1333 604.125 74.56C603.419 74.9733 602.592 75.18 601.645 75.18C600.672 75.18 599.792 74.94 599.005 74.46C598.219 73.98 597.599 73.3067 597.145 72.44C596.692 71.5733 596.465 70.5867 596.465 69.48ZM605.745 69.5C605.745 68.6733 605.579 67.9533 605.245 67.34C604.912 66.7267 604.459 66.26 603.885 65.94C603.325 65.6067 602.705 65.44 602.025 65.44C601.345 65.44 600.725 65.6 600.165 65.92C599.605 66.24 599.159 66.7067 598.825 67.32C598.492 67.9333 598.325 68.6533 598.325 69.48C598.325 70.32 598.492 71.0533 598.825 71.68C599.159 72.2933 599.605 72.7667 600.165 73.1C600.725 73.42 601.345 73.58 602.025 73.58C602.705 73.58 603.325 73.42 603.885 73.1C604.459 72.7667 604.912 72.2933 605.245 71.68C605.579 71.0533 605.745 70.3267 605.745 69.5ZM612.481 60.2V75H610.661V60.2H612.481ZM622.735 61.06V75H620.915V61.06H622.735ZM631.177 63.84C632.51 63.84 633.59 64.2467 634.417 65.06C635.244 65.86 635.657 67.02 635.657 68.54V75H633.857V68.8C633.857 67.7067 633.584 66.8733 633.037 66.3C632.49 65.7133 631.744 65.42 630.797 65.42C629.837 65.42 629.07 65.72 628.497 66.32C627.937 66.92 627.657 67.7933 627.657 68.94V75H625.837V64.04H627.657V65.6C628.017 65.04 628.504 64.6067 629.117 64.3C629.744 63.9933 630.43 63.84 631.177 63.84ZM640.85 65.54V72C640.85 72.5333 640.963 72.9133 641.19 73.14C641.417 73.3533 641.81 73.46 642.37 73.46H643.71V75H642.07C641.057 75 640.297 74.7667 639.79 74.3C639.283 73.8333 639.03 73.0667 639.03 72V65.54H637.61V64.04H639.03V61.28H640.85V64.04H643.71V65.54H640.85ZM655.915 69.1C655.915 69.4467 655.895 69.8133 655.855 70.2H647.095C647.162 71.28 647.528 72.1267 648.195 72.74C648.875 73.34 649.695 73.64 650.655 73.64C651.442 73.64 652.095 73.46 652.615 73.1C653.148 72.7267 653.522 72.2333 653.735 71.62H655.695C655.402 72.6733 654.815 73.5333 653.935 74.2C653.055 74.8533 651.962 75.18 650.655 75.18C649.615 75.18 648.682 74.9467 647.855 74.48C647.042 74.0133 646.402 73.3533 645.935 72.5C645.468 71.6333 645.235 70.6333 645.235 69.5C645.235 68.3667 645.462 67.3733 645.915 66.52C646.368 65.6667 647.002 65.0133 647.815 64.56C648.642 64.0933 649.588 63.86 650.655 63.86C651.695 63.86 652.615 64.0867 653.415 64.54C654.215 64.9933 654.828 65.62 655.255 66.42C655.695 67.2067 655.915 68.1 655.915 69.1ZM654.035 68.72C654.035 68.0267 653.882 67.4333 653.575 66.94C653.268 66.4333 652.848 66.0533 652.315 65.8C651.795 65.5333 651.215 65.4 650.575 65.4C649.655 65.4 648.868 65.6933 648.215 66.28C647.575 66.8667 647.208 67.68 647.115 68.72H654.035ZM660.137 60.2V75H658.317V60.2H660.137ZM665.059 60.2V75H663.239V60.2H665.059ZM669.101 62.26C668.754 62.26 668.461 62.14 668.221 61.9C667.981 61.66 667.861 61.3667 667.861 61.02C667.861 60.6733 667.981 60.38 668.221 60.14C668.461 59.9 668.754 59.78 669.101 59.78C669.434 59.78 669.714 59.9 669.941 60.14C670.181 60.38 670.301 60.6733 670.301 61.02C670.301 61.3667 670.181 61.66 669.941 61.9C669.714 62.14 669.434 62.26 669.101 62.26ZM669.981 64.04V75H668.161V64.04H669.981ZM677.603 63.86C678.55 63.86 679.376 64.0667 680.083 64.48C680.803 64.8933 681.336 65.4133 681.683 66.04V64.04H683.523V75.24C683.523 76.24 683.31 77.1267 682.883 77.9C682.456 78.6867 681.843 79.3 681.043 79.74C680.256 80.18 679.336 80.4 678.283 80.4C676.843 80.4 675.643 80.06 674.683 79.38C673.723 78.7 673.156 77.7733 672.983 76.6H674.783C674.983 77.2667 675.396 77.8 676.023 78.2C676.65 78.6133 677.403 78.82 678.283 78.82C679.283 78.82 680.096 78.5067 680.723 77.88C681.363 77.2533 681.683 76.3733 681.683 75.24V72.94C681.323 73.58 680.79 74.1133 680.083 74.54C679.376 74.9667 678.55 75.18 677.603 75.18C676.63 75.18 675.743 74.94 674.943 74.46C674.156 73.98 673.536 73.3067 673.083 72.44C672.63 71.5733 672.403 70.5867 672.403 69.48C672.403 68.36 672.63 67.38 673.083 66.54C673.536 65.6867 674.156 65.0267 674.943 64.56C675.743 64.0933 676.63 63.86 677.603 63.86ZM681.683 69.5C681.683 68.6733 681.516 67.9533 681.183 67.34C680.85 66.7267 680.396 66.26 679.823 65.94C679.263 65.6067 678.643 65.44 677.963 65.44C677.283 65.44 676.663 65.6 676.103 65.92C675.543 66.24 675.096 66.7067 674.763 67.32C674.43 67.9333 674.263 68.6533 674.263 69.48C674.263 70.32 674.43 71.0533 674.763 71.68C675.096 72.2933 675.543 72.7667 676.103 73.1C676.663 73.42 677.283 73.58 677.963 73.58C678.643 73.58 679.263 73.42 679.823 73.1C680.396 72.7667 680.85 72.2933 681.183 71.68C681.516 71.0533 681.683 70.3267 681.683 69.5ZM696.599 69.1C696.599 69.4467 696.579 69.8133 696.539 70.2H687.779C687.845 71.28 688.212 72.1267 688.879 72.74C689.559 73.34 690.379 73.64 691.339 73.64C692.125 73.64 692.779 73.46 693.299 73.1C693.832 72.7267 694.205 72.2333 694.419 71.62H696.379C696.085 72.6733 695.499 73.5333 694.619 74.2C693.739 74.8533 692.645 75.18 691.339 75.18C690.299 75.18 689.365 74.9467 688.539 74.48C687.725 74.0133 687.085 73.3533 686.619 72.5C686.152 71.6333 685.919 70.6333 685.919 69.5C685.919 68.3667 686.145 67.3733 686.599 66.52C687.052 65.6667 687.685 65.0133 688.499 64.56C689.325 64.0933 690.272 63.86 691.339 63.86C692.379 63.86 693.299 64.0867 694.099 64.54C694.899 64.9933 695.512 65.62 695.939 66.42C696.379 67.2067 696.599 68.1 696.599 69.1ZM694.719 68.72C694.719 68.0267 694.565 67.4333 694.259 66.94C693.952 66.4333 693.532 66.0533 692.999 65.8C692.479 65.5333 691.899 65.4 691.259 65.4C690.339 65.4 689.552 65.6933 688.899 66.28C688.259 66.8667 687.892 67.68 687.799 68.72H694.719ZM704.341 63.84C705.674 63.84 706.754 64.2467 707.581 65.06C708.408 65.86 708.821 67.02 708.821 68.54V75H707.021V68.8C707.021 67.7067 706.748 66.8733 706.201 66.3C705.654 65.7133 704.908 65.42 703.961 65.42C703.001 65.42 702.234 65.72 701.661 66.32C701.101 66.92 700.821 67.7933 700.821 68.94V75H699.001V64.04H700.821V65.6C701.181 65.04 701.668 64.6067 702.281 64.3C702.908 63.9933 703.594 63.84 704.341 63.84ZM711.114 69.5C711.114 68.3667 711.341 67.38 711.794 66.54C712.247 65.6867 712.874 65.0267 713.674 64.56C714.487 64.0933 715.414 63.86 716.454 63.86C717.801 63.86 718.907 64.1867 719.774 64.84C720.654 65.4933 721.234 66.4 721.514 67.56H719.554C719.367 66.8933 719.001 66.3667 718.454 65.98C717.921 65.5933 717.254 65.4 716.454 65.4C715.414 65.4 714.574 65.76 713.934 66.48C713.294 67.1867 712.974 68.1933 712.974 69.5C712.974 70.82 713.294 71.84 713.934 72.56C714.574 73.28 715.414 73.64 716.454 73.64C717.254 73.64 717.921 73.4533 718.454 73.08C718.987 72.7067 719.354 72.1733 719.554 71.48H721.514C721.221 72.6 720.634 73.5 719.754 74.18C718.874 74.8467 717.774 75.18 716.454 75.18C715.414 75.18 714.487 74.9467 713.674 74.48C712.874 74.0133 712.247 73.3533 711.794 72.5C711.341 71.6467 711.114 70.6467 711.114 69.5ZM733.942 69.1C733.942 69.4467 733.922 69.8133 733.882 70.2H725.122C725.189 71.28 725.556 72.1267 726.222 72.74C726.902 73.34 727.722 73.64 728.682 73.64C729.469 73.64 730.122 73.46 730.642 73.1C731.176 72.7267 731.549 72.2333 731.762 71.62H733.722C733.429 72.6733 732.842 73.5333 731.962 74.2C731.082 74.8533 729.989 75.18 728.682 75.18C727.642 75.18 726.709 74.9467 725.882 74.48C725.069 74.0133 724.429 73.3533 723.962 72.5C723.496 71.6333 723.262 70.6333 723.262 69.5C723.262 68.3667 723.489 67.3733 723.942 66.52C724.396 65.6667 725.029 65.0133 725.842 64.56C726.669 64.0933 727.616 63.86 728.682 63.86C729.722 63.86 730.642 64.0867 731.442 64.54C732.242 64.9933 732.856 65.62 733.282 66.42C733.722 67.2067 733.942 68.1 733.942 69.1ZM732.062 68.72C732.062 68.0267 731.909 67.4333 731.602 66.94C731.296 66.4333 730.876 66.0533 730.342 65.8C729.822 65.5333 729.242 65.4 728.602 65.4C727.682 65.4 726.896 65.6933 726.242 66.28C725.602 66.8667 725.236 67.68 725.142 68.72H732.062Z" fill="black"/>
<circle cx="458.5" cy="193.5" r="75.5" fill="#2ED835"/>
<path d="M534 193.5C534 205.466 531.156 217.26 525.702 227.911C520.248 238.562 512.341 247.764 502.632 254.758C492.924 261.753 481.691 266.339 469.862 268.14C458.032 269.941 445.944 268.904 434.594 265.115C423.244 261.326 412.957 254.894 404.581 246.348C396.205 237.803 389.98 227.389 386.42 215.965C382.859 204.541 382.065 192.434 384.103 180.643C386.14 168.852 390.951 157.714 398.139 148.148L458.5 193.5H534Z" fill="#E85959"/>
<path d="M534 193.5C534 208.818 529.341 223.774 520.641 236.381C511.94 248.989 499.611 258.652 485.29 264.087C470.969 269.523 455.333 270.473 440.459 266.813C425.584 263.152 412.175 255.054 402.012 243.594L458.5 193.5H534Z" fill="#34B2CE"/>
<path d="M589.992 160L587.004 154.87H585.024V160H583.386V147.454H587.436C588.384 147.454 589.182 147.616 589.83 147.94C590.49 148.264 590.982 148.702 591.306 149.254C591.63 149.806 591.792 150.436 591.792 151.144C591.792 152.008 591.54 152.77 591.036 153.43C590.544 154.09 589.8 154.528 588.804 154.744L591.954 160H589.992ZM585.024 153.556H587.436C588.324 153.556 588.99 153.34 589.434 152.908C589.878 152.464 590.1 151.876 590.1 151.144C590.1 150.4 589.878 149.824 589.434 149.416C589.002 149.008 588.336 148.804 587.436 148.804H585.024V153.556ZM603.337 154.69C603.337 155.002 603.319 155.332 603.283 155.68H595.399C595.459 156.652 595.789 157.414 596.389 157.966C597.001 158.506 597.739 158.776 598.603 158.776C599.311 158.776 599.899 158.614 600.367 158.29C600.847 157.954 601.183 157.51 601.375 156.958H603.139C602.875 157.906 602.347 158.68 601.555 159.28C600.763 159.868 599.779 160.162 598.603 160.162C597.667 160.162 596.827 159.952 596.083 159.532C595.351 159.112 594.775 158.518 594.355 157.75C593.935 156.97 593.725 156.07 593.725 155.05C593.725 154.03 593.929 153.136 594.337 152.368C594.745 151.6 595.315 151.012 596.047 150.604C596.791 150.184 597.643 149.974 598.603 149.974C599.539 149.974 600.367 150.178 601.087 150.586C601.807 150.994 602.359 151.558 602.743 152.278C603.139 152.986 603.337 153.79 603.337 154.69ZM601.645 154.348C601.645 153.724 601.507 153.19 601.231 152.746C600.955 152.29 600.577 151.948 600.097 151.72C599.629 151.48 599.107 151.36 598.531 151.36C597.703 151.36 596.995 151.624 596.407 152.152C595.831 152.68 595.501 153.412 595.417 154.348H601.645ZM604.887 155.032C604.887 154.024 605.091 153.142 605.499 152.386C605.907 151.618 606.465 151.024 607.173 150.604C607.893 150.184 608.691 149.974 609.567 149.974C610.431 149.974 611.181 150.16 611.817 150.532C612.453 150.904 612.927 151.372 613.239 151.936V150.136H614.895V160H613.239V158.164C612.915 158.74 612.429 159.22 611.781 159.604C611.145 159.976 610.401 160.162 609.549 160.162C608.673 160.162 607.881 159.946 607.173 159.514C606.465 159.082 605.907 158.476 605.499 157.696C605.091 156.916 604.887 156.028 604.887 155.032ZM613.239 155.05C613.239 154.306 613.089 153.658 612.789 153.106C612.489 152.554 612.081 152.134 611.565 151.846C611.061 151.546 610.503 151.396 609.891 151.396C609.279 151.396 608.721 151.54 608.217 151.828C607.713 152.116 607.311 152.536 607.011 153.088C606.711 153.64 606.561 154.288 606.561 155.032C606.561 155.788 606.711 156.448 607.011 157.012C607.311 157.564 607.713 157.99 608.217 158.29C608.721 158.578 609.279 158.722 609.891 158.722C610.503 158.722 611.061 158.578 611.565 158.29C612.081 157.99 612.489 157.564 612.789 157.012C613.089 156.448 613.239 155.794 613.239 155.05ZM617.051 155.032C617.051 154.024 617.255 153.142 617.663 152.386C618.071 151.618 618.629 151.024 619.337 150.604C620.057 150.184 620.861 149.974 621.749 149.974C622.517 149.974 623.231 150.154 623.891 150.514C624.551 150.862 625.055 151.324 625.403 151.9V146.68H627.059V160H625.403V158.146C625.079 158.734 624.599 159.22 623.963 159.604C623.327 159.976 622.583 160.162 621.731 160.162C620.855 160.162 620.057 159.946 619.337 159.514C618.629 159.082 618.071 158.476 617.663 157.696C617.255 156.916 617.051 156.028 617.051 155.032ZM625.403 155.05C625.403 154.306 625.253 153.658 624.953 153.106C624.653 152.554 624.245 152.134 623.729 151.846C623.225 151.546 622.667 151.396 622.055 151.396C621.443 151.396 620.885 151.54 620.381 151.828C619.877 152.116 619.475 152.536 619.175 153.088C618.875 153.64 618.725 154.288 618.725 155.032C618.725 155.788 618.875 156.448 619.175 157.012C619.475 157.564 619.877 157.99 620.381 158.29C620.885 158.578 621.443 158.722 622.055 158.722C622.667 158.722 623.225 158.578 623.729 158.29C624.245 157.99 624.653 157.564 624.953 157.012C625.253 156.448 625.403 155.794 625.403 155.05ZM630.673 148.534C630.361 148.534 630.097 148.426 629.881 148.21C629.665 147.994 629.557 147.73 629.557 147.418C629.557 147.106 629.665 146.842 629.881 146.626C630.097 146.41 630.361 146.302 630.673 146.302C630.973 146.302 631.225 146.41 631.429 146.626C631.645 146.842 631.753 147.106 631.753 147.418C631.753 147.73 631.645 147.994 631.429 148.21C631.225 148.426 630.973 148.534 630.673 148.534ZM631.465 150.136V160H629.827V150.136H631.465ZM639.063 149.956C640.263 149.956 641.235 150.322 641.979 151.054C642.723 151.774 643.095 152.818 643.095 154.186V160H641.475V154.42C641.475 153.436 641.229 152.686 640.737 152.17C640.245 151.642 639.573 151.378 638.721 151.378C637.857 151.378 637.167 151.648 636.651 152.188C636.147 152.728 635.895 153.514 635.895 154.546V160H634.257V150.136H635.895V151.54C636.219 151.036 636.657 150.646 637.209 150.37C637.773 150.094 638.391 149.956 639.063 149.956ZM649.839 149.974C650.691 149.974 651.435 150.16 652.071 150.532C652.719 150.904 653.199 151.372 653.511 151.936V150.136H655.167V160.216C655.167 161.116 654.975 161.914 654.591 162.61C654.207 163.318 653.655 163.87 652.935 164.266C652.227 164.662 651.399 164.86 650.451 164.86C649.155 164.86 648.075 164.554 647.211 163.942C646.347 163.33 645.837 162.496 645.681 161.44H647.301C647.481 162.04 647.853 162.52 648.417 162.88C648.981 163.252 649.659 163.438 650.451 163.438C651.351 163.438 652.083 163.156 652.647 162.592C653.223 162.028 653.511 161.236 653.511 160.216V158.146C653.187 158.722 652.707 159.202 652.071 159.586C651.435 159.97 650.691 160.162 649.839 160.162C648.963 160.162 648.165 159.946 647.445 159.514C646.737 159.082 646.179 158.476 645.771 157.696C645.363 156.916 645.159 156.028 645.159 155.032C645.159 154.024 645.363 153.142 645.771 152.386C646.179 151.618 646.737 151.024 647.445 150.604C648.165 150.184 648.963 149.974 649.839 149.974ZM653.511 155.05C653.511 154.306 653.361 153.658 653.061 153.106C652.761 152.554 652.353 152.134 651.837 151.846C651.333 151.546 650.775 151.396 650.163 151.396C649.551 151.396 648.993 151.54 648.489 151.828C647.985 152.116 647.583 152.536 647.283 153.088C646.983 153.64 646.833 154.288 646.833 155.032C646.833 155.788 646.983 156.448 647.283 157.012C647.583 157.564 647.985 157.99 648.489 158.29C648.993 158.578 649.551 158.722 650.163 158.722C650.775 158.722 651.333 158.578 651.837 158.29C652.353 157.99 652.761 157.564 653.061 157.012C653.361 156.448 653.511 155.794 653.511 155.05ZM714.459 154.114H710.625V158.002H709.095V154.114H705.279V152.728H709.095V148.822H710.625V152.728H714.459V154.114ZM599.154 174.454L595.518 187H593.682L590.766 176.902L587.742 187L585.924 187.018L582.414 174.454H584.16L586.896 185.092L589.92 174.454H591.756L594.636 185.056L597.39 174.454H599.154ZM602.585 178.738C602.873 178.174 603.281 177.736 603.809 177.424C604.349 177.112 605.003 176.956 605.771 176.956V178.648H605.339C603.503 178.648 602.585 179.644 602.585 181.636V187H600.947V177.136H602.585V178.738ZM608.507 175.534C608.195 175.534 607.931 175.426 607.715 175.21C607.499 174.994 607.391 174.73 607.391 174.418C607.391 174.106 607.499 173.842 607.715 173.626C607.931 173.41 608.195 173.302 608.507 173.302C608.807 173.302 609.059 173.41 609.263 173.626C609.479 173.842 609.587 174.106 609.587 174.418C609.587 174.73 609.479 174.994 609.263 175.21C609.059 175.426 608.807 175.534 608.507 175.534ZM609.299 177.136V187H607.661V177.136H609.299ZM614.089 178.486V184.3C614.089 184.78 614.191 185.122 614.395 185.326C614.599 185.518 614.953 185.614 615.457 185.614H616.663V187H615.187C614.275 187 613.591 186.79 613.135 186.37C612.679 185.95 612.451 185.26 612.451 184.3V178.486H611.173V177.136H612.451V174.652H614.089V177.136H616.663V178.486H614.089ZM619.494 175.534C619.182 175.534 618.918 175.426 618.702 175.21C618.486 174.994 618.378 174.73 618.378 174.418C618.378 174.106 618.486 173.842 618.702 173.626C618.918 173.41 619.182 173.302 619.494 173.302C619.794 173.302 620.046 173.41 620.25 173.626C620.466 173.842 620.574 174.106 620.574 174.418C620.574 174.73 620.466 174.994 620.25 175.21C620.046 175.426 619.794 175.534 619.494 175.534ZM620.286 177.136V187H618.648V177.136H620.286ZM627.883 176.956C629.083 176.956 630.055 177.322 630.799 178.054C631.543 178.774 631.915 179.818 631.915 181.186V187H630.295V181.42C630.295 180.436 630.049 179.686 629.557 179.17C629.065 178.642 628.393 178.378 627.541 178.378C626.677 178.378 625.987 178.648 625.471 179.188C624.967 179.728 624.715 180.514 624.715 181.546V187H623.077V177.136H624.715V178.54C625.039 178.036 625.477 177.646 626.029 177.37C626.593 177.094 627.211 176.956 627.883 176.956ZM638.659 176.974C639.511 176.974 640.255 177.16 640.891 177.532C641.539 177.904 642.019 178.372 642.331 178.936V177.136H643.987V187.216C643.987 188.116 643.795 188.914 643.411 189.61C643.027 190.318 642.475 190.87 641.755 191.266C641.047 191.662 640.219 191.86 639.271 191.86C637.975 191.86 636.895 191.554 636.031 190.942C635.167 190.33 634.657 189.496 634.501 188.44H636.121C636.301 189.04 636.673 189.52 637.237 189.88C637.801 190.252 638.479 190.438 639.271 190.438C640.171 190.438 640.903 190.156 641.467 189.592C642.043 189.028 642.331 188.236 642.331 187.216V185.146C642.007 185.722 641.527 186.202 640.891 186.586C640.255 186.97 639.511 187.162 638.659 187.162C637.783 187.162 636.985 186.946 636.265 186.514C635.557 186.082 634.999 185.476 634.591 184.696C634.183 183.916 633.979 183.028 633.979 182.032C633.979 181.024 634.183 180.142 634.591 179.386C634.999 178.618 635.557 178.024 636.265 177.604C636.985 177.184 637.783 176.974 638.659 176.974ZM642.331 182.05C642.331 181.306 642.181 180.658 641.881 180.106C641.581 179.554 641.173 179.134 640.657 178.846C640.153 178.546 639.595 178.396 638.983 178.396C638.371 178.396 637.813 178.54 637.309 178.828C636.805 179.116 636.403 179.536 636.103 180.088C635.803 180.64 635.653 181.288 635.653 182.032C635.653 182.788 635.803 183.448 636.103 184.012C636.403 184.564 636.805 184.99 637.309 185.29C637.813 185.578 638.371 185.722 638.983 185.722C639.595 185.722 640.153 185.578 640.657 185.29C641.173 184.99 641.581 184.564 641.881 184.012C642.181 183.448 642.331 182.794 642.331 182.05ZM714.459 181.114H710.625V185.002H709.095V181.114H705.279V179.728H709.095V175.822H710.625V179.728H714.459V181.114ZM587.364 214.126C586.536 214.126 585.792 213.982 585.132 213.694C584.484 213.394 583.974 212.986 583.602 212.47C583.23 211.942 583.038 211.336 583.026 210.652H584.772C584.832 211.24 585.072 211.738 585.492 212.146C585.924 212.542 586.548 212.74 587.364 212.74C588.144 212.74 588.756 212.548 589.2 212.164C589.656 211.768 589.884 211.264 589.884 210.652C589.884 210.172 589.752 209.782 589.488 209.482C589.224 209.182 588.894 208.954 588.498 208.798C588.102 208.642 587.568 208.474 586.896 208.294C586.068 208.078 585.402 207.862 584.898 207.646C584.406 207.43 583.98 207.094 583.62 206.638C583.272 206.17 583.098 205.546 583.098 204.766C583.098 204.082 583.272 203.476 583.62 202.948C583.968 202.42 584.454 202.012 585.078 201.724C585.714 201.436 586.44 201.292 587.256 201.292C588.432 201.292 589.392 201.586 590.136 202.174C590.892 202.762 591.318 203.542 591.414 204.514H589.614C589.554 204.034 589.302 203.614 588.858 203.254C588.414 202.882 587.826 202.696 587.094 202.696C586.41 202.696 585.852 202.876 585.42 203.236C584.988 203.584 584.772 204.076 584.772 204.712C584.772 205.168 584.898 205.54 585.15 205.828C585.414 206.116 585.732 206.338 586.104 206.494C586.488 206.638 587.022 206.806 587.706 206.998C588.534 207.226 589.2 207.454 589.704 207.682C590.208 207.898 590.64 208.24 591 208.708C591.36 209.164 591.54 209.788 591.54 210.58C591.54 211.192 591.378 211.768 591.054 212.308C590.73 212.848 590.25 213.286 589.614 213.622C588.978 213.958 588.228 214.126 587.364 214.126ZM595.588 205.954C595.912 205.39 596.392 204.922 597.028 204.55C597.676 204.166 598.426 203.974 599.278 203.974C600.154 203.974 600.946 204.184 601.654 204.604C602.374 205.024 602.938 205.618 603.346 206.386C603.754 207.142 603.958 208.024 603.958 209.032C603.958 210.028 603.754 210.916 603.346 211.696C602.938 212.476 602.374 213.082 601.654 213.514C600.946 213.946 600.154 214.162 599.278 214.162C598.438 214.162 597.694 213.976 597.046 213.604C596.41 213.22 595.924 212.746 595.588 212.182V218.68H593.95V204.136H595.588V205.954ZM602.284 209.032C602.284 208.288 602.134 207.64 601.834 207.088C601.534 206.536 601.126 206.116 600.61 205.828C600.106 205.54 599.548 205.396 598.936 205.396C598.336 205.396 597.778 205.546 597.262 205.846C596.758 206.134 596.35 206.56 596.038 207.124C595.738 207.676 595.588 208.318 595.588 209.05C595.588 209.794 595.738 210.448 596.038 211.012C596.35 211.564 596.758 211.99 597.262 212.29C597.778 212.578 598.336 212.722 598.936 212.722C599.548 212.722 600.106 212.578 600.61 212.29C601.126 211.99 601.534 211.564 601.834 211.012C602.134 210.448 602.284 209.788 602.284 209.032ZM615.115 208.69C615.115 209.002 615.097 209.332 615.061 209.68H607.177C607.237 210.652 607.567 211.414 608.167 211.966C608.779 212.506 609.517 212.776 610.381 212.776C611.089 212.776 611.677 212.614 612.145 212.29C612.625 211.954 612.961 211.51 613.153 210.958H614.917C614.653 211.906 614.125 212.68 613.333 213.28C612.541 213.868 611.557 214.162 610.381 214.162C609.445 214.162 608.605 213.952 607.861 213.532C607.129 213.112 606.553 212.518 606.133 211.75C605.713 210.97 605.503 210.07 605.503 209.05C605.503 208.03 605.707 207.136 606.115 206.368C606.523 205.6 607.093 205.012 607.825 204.604C608.569 204.184 609.421 203.974 610.381 203.974C611.317 203.974 612.145 204.178 612.865 204.586C613.585 204.994 614.137 205.558 614.521 206.278C614.917 206.986 615.115 207.79 615.115 208.69ZM613.423 208.348C613.423 207.724 613.285 207.19 613.009 206.746C612.733 206.29 612.355 205.948 611.875 205.72C611.407 205.48 610.885 205.36 610.309 205.36C609.481 205.36 608.773 205.624 608.185 206.152C607.609 206.68 607.279 207.412 607.195 208.348H613.423ZM616.665 209.032C616.665 208.024 616.869 207.142 617.277 206.386C617.685 205.618 618.243 205.024 618.951 204.604C619.671 204.184 620.469 203.974 621.345 203.974C622.209 203.974 622.959 204.16 623.595 204.532C624.231 204.904 624.705 205.372 625.017 205.936V204.136H626.673V214H625.017V212.164C624.693 212.74 624.207 213.22 623.559 213.604C622.923 213.976 622.179 214.162 621.327 214.162C620.451 214.162 619.659 213.946 618.951 213.514C618.243 213.082 617.685 212.476 617.277 211.696C616.869 210.916 616.665 210.028 616.665 209.032ZM625.017 209.05C625.017 208.306 624.867 207.658 624.567 207.106C624.267 206.554 623.859 206.134 623.343 205.846C622.839 205.546 622.281 205.396 621.669 205.396C621.057 205.396 620.499 205.54 619.995 205.828C619.491 206.116 619.089 206.536 618.789 207.088C618.489 207.64 618.339 208.288 618.339 209.032C618.339 209.788 618.489 210.448 618.789 211.012C619.089 211.564 619.491 211.99 619.995 212.29C620.499 212.578 621.057 212.722 621.669 212.722C622.281 212.722 622.839 212.578 623.343 212.29C623.859 211.99 624.267 211.564 624.567 211.012C624.867 210.448 625.017 209.794 625.017 209.05ZM634.949 214L631.079 209.644V214H629.441V200.68H631.079V208.51L634.877 204.136H637.163L632.519 209.05L637.181 214H634.949ZM639.55 202.534C639.238 202.534 638.974 202.426 638.758 202.21C638.542 201.994 638.434 201.73 638.434 201.418C638.434 201.106 638.542 200.842 638.758 200.626C638.974 200.41 639.238 200.302 639.55 200.302C639.85 200.302 640.102 200.41 640.306 200.626C640.522 200.842 640.63 201.106 640.63 201.418C640.63 201.73 640.522 201.994 640.306 202.21C640.102 202.426 639.85 202.534 639.55 202.534ZM640.342 204.136V214H638.704V204.136H640.342ZM647.94 203.956C649.14 203.956 650.112 204.322 650.856 205.054C651.6 205.774 651.972 206.818 651.972 208.186V214H650.352V208.42C650.352 207.436 650.106 206.686 649.614 206.17C649.122 205.642 648.45 205.378 647.598 205.378C646.734 205.378 646.044 205.648 645.528 206.188C645.024 206.728 644.772 207.514 644.772 208.546V214H643.134V204.136H644.772V205.54C645.096 205.036 645.534 204.646 646.086 204.37C646.65 204.094 647.268 203.956 647.94 203.956ZM658.716 203.974C659.568 203.974 660.312 204.16 660.948 204.532C661.596 204.904 662.076 205.372 662.388 205.936V204.136H664.044V214.216C664.044 215.116 663.852 215.914 663.468 216.61C663.084 217.318 662.532 217.87 661.812 218.266C661.104 218.662 660.276 218.86 659.328 218.86C658.032 218.86 656.952 218.554 656.088 217.942C655.224 217.33 654.714 216.496 654.558 215.44H656.178C656.358 216.04 656.73 216.52 657.294 216.88C657.858 217.252 658.536 217.438 659.328 217.438C660.228 217.438 660.96 217.156 661.524 216.592C662.1 216.028 662.388 215.236 662.388 214.216V212.146C662.064 212.722 661.584 213.202 660.948 213.586C660.312 213.97 659.568 214.162 658.716 214.162C657.84 214.162 657.042 213.946 656.322 213.514C655.614 213.082 655.056 212.476 654.648 211.696C654.24 210.916 654.036 210.028 654.036 209.032C654.036 208.024 654.24 207.142 654.648 206.386C655.056 205.618 655.614 205.024 656.322 204.604C657.042 204.184 657.84 203.974 658.716 203.974ZM662.388 209.05C662.388 208.306 662.238 207.658 661.938 207.106C661.638 206.554 661.23 206.134 660.714 205.846C660.21 205.546 659.652 205.396 659.04 205.396C658.428 205.396 657.87 205.54 657.366 205.828C656.862 206.116 656.46 206.536 656.16 207.088C655.86 207.64 655.71 208.288 655.71 209.032C655.71 209.788 655.86 210.448 656.16 211.012C656.46 211.564 656.862 211.99 657.366 212.29C657.87 212.578 658.428 212.722 659.04 212.722C659.652 212.722 660.21 212.578 660.714 212.29C661.23 211.99 661.638 211.564 661.938 211.012C662.238 210.448 662.388 209.794 662.388 209.05ZM714.459 208.114H710.625V212.002H709.095V208.114H705.279V206.728H709.095V202.822H710.625V206.728H714.459V208.114ZM585.024 239.668H589.416V241H583.386V228.454H585.024V239.668ZM592.002 229.534C591.69 229.534 591.426 229.426 591.21 229.21C590.994 228.994 590.886 228.73 590.886 228.418C590.886 228.106 590.994 227.842 591.21 227.626C591.426 227.41 591.69 227.302 592.002 227.302C592.302 227.302 592.554 227.41 592.758 227.626C592.974 227.842 593.082 228.106 593.082 228.418C593.082 228.73 592.974 228.994 592.758 229.21C592.554 229.426 592.302 229.534 592.002 229.534ZM592.794 231.136V241H591.156V231.136H592.794ZM599.077 241.162C598.321 241.162 597.643 241.036 597.043 240.784C596.443 240.52 595.969 240.16 595.621 239.704C595.273 239.236 595.081 238.702 595.045 238.102H596.737C596.785 238.594 597.013 238.996 597.421 239.308C597.841 239.62 598.387 239.776 599.059 239.776C599.683 239.776 600.175 239.638 600.535 239.362C600.895 239.086 601.075 238.738 601.075 238.318C601.075 237.886 600.883 237.568 600.499 237.364C600.115 237.148 599.521 236.938 598.717 236.734C597.985 236.542 597.385 236.35 596.917 236.158C596.461 235.954 596.065 235.66 595.729 235.276C595.405 234.88 595.243 234.364 595.243 233.728C595.243 233.224 595.393 232.762 595.693 232.342C595.993 231.922 596.419 231.592 596.971 231.352C597.523 231.1 598.153 230.974 598.861 230.974C599.953 230.974 600.835 231.25 601.507 231.802C602.179 232.354 602.539 233.11 602.587 234.07H600.949C600.913 233.554 600.703 233.14 600.319 232.828C599.947 232.516 599.443 232.36 598.807 232.36C598.219 232.36 597.751 232.486 597.403 232.738C597.055 232.99 596.881 233.32 596.881 233.728C596.881 234.052 596.983 234.322 597.187 234.538C597.403 234.742 597.667 234.91 597.979 235.042C598.303 235.162 598.747 235.3 599.311 235.456C600.019 235.648 600.595 235.84 601.039 236.032C601.483 236.212 601.861 236.488 602.173 236.86C602.497 237.232 602.665 237.718 602.677 238.318C602.677 238.858 602.527 239.344 602.227 239.776C601.927 240.208 601.501 240.55 600.949 240.802C600.409 241.042 599.785 241.162 599.077 241.162ZM606.988 232.486V238.3C606.988 238.78 607.09 239.122 607.294 239.326C607.498 239.518 607.852 239.614 608.356 239.614H609.562V241H608.086C607.174 241 606.49 240.79 606.034 240.37C605.578 239.95 605.35 239.26 605.35 238.3V232.486H604.072V231.136H605.35V228.652H606.988V231.136H609.562V232.486H606.988ZM620.546 235.69C620.546 236.002 620.528 236.332 620.492 236.68H612.608C612.668 237.652 612.998 238.414 613.598 238.966C614.21 239.506 614.948 239.776 615.812 239.776C616.52 239.776 617.108 239.614 617.576 239.29C618.056 238.954 618.392 238.51 618.584 237.958H620.348C620.084 238.906 619.556 239.68 618.764 240.28C617.972 240.868 616.988 241.162 615.812 241.162C614.876 241.162 614.036 240.952 613.292 240.532C612.56 240.112 611.984 239.518 611.564 238.75C611.144 237.97 610.934 237.07 610.934 236.05C610.934 235.03 611.138 234.136 611.546 233.368C611.954 232.6 612.524 232.012 613.256 231.604C614 231.184 614.852 230.974 615.812 230.974C616.748 230.974 617.576 231.178 618.296 231.586C619.016 231.994 619.568 232.558 619.952 233.278C620.348 233.986 620.546 234.79 620.546 235.69ZM618.854 235.348C618.854 234.724 618.716 234.19 618.44 233.746C618.164 233.29 617.786 232.948 617.306 232.72C616.838 232.48 616.316 232.36 615.74 232.36C614.912 232.36 614.204 232.624 613.616 233.152C613.04 233.68 612.71 234.412 612.626 235.348H618.854ZM627.514 230.956C628.714 230.956 629.686 231.322 630.43 232.054C631.174 232.774 631.546 233.818 631.546 235.186V241H629.926V235.42C629.926 234.436 629.68 233.686 629.188 233.17C628.696 232.642 628.024 232.378 627.172 232.378C626.308 232.378 625.618 232.648 625.102 233.188C624.598 233.728 624.346 234.514 624.346 235.546V241H622.708V231.136H624.346V232.54C624.67 232.036 625.108 231.646 625.66 231.37C626.224 231.094 626.842 230.956 627.514 230.956ZM635.068 229.534C634.756 229.534 634.492 229.426 634.276 229.21C634.06 228.994 633.952 228.73 633.952 228.418C633.952 228.106 634.06 227.842 634.276 227.626C634.492 227.41 634.756 227.302 635.068 227.302C635.368 227.302 635.62 227.41 635.824 227.626C636.04 227.842 636.148 228.106 636.148 228.418C636.148 228.73 636.04 228.994 635.824 229.21C635.62 229.426 635.368 229.534 635.068 229.534ZM635.86 231.136V241H634.222V231.136H635.86ZM643.458 230.956C644.658 230.956 645.63 231.322 646.374 232.054C647.118 232.774 647.49 233.818 647.49 235.186V241H645.87V235.42C645.87 234.436 645.624 233.686 645.132 233.17C644.64 232.642 643.968 232.378 643.116 232.378C642.252 232.378 641.562 232.648 641.046 233.188C640.542 233.728 640.29 234.514 640.29 235.546V241H638.652V231.136H640.29V232.54C640.614 232.036 641.052 231.646 641.604 231.37C642.168 231.094 642.786 230.956 643.458 230.956ZM654.233 230.974C655.085 230.974 655.829 231.16 656.465 231.532C657.113 231.904 657.593 232.372 657.905 232.936V231.136H659.561V241.216C659.561 242.116 659.369 242.914 658.985 243.61C658.601 244.318 658.049 244.87 657.329 245.266C656.621 245.662 655.793 245.86 654.845 245.86C653.549 245.86 652.469 245.554 651.605 244.942C650.741 244.33 650.231 243.496 650.075 242.44H651.695C651.875 243.04 652.247 243.52 652.811 243.88C653.375 244.252 654.053 244.438 654.845 244.438C655.745 244.438 656.477 244.156 657.041 243.592C657.617 243.028 657.905 242.236 657.905 241.216V239.146C657.581 239.722 657.101 240.202 656.465 240.586C655.829 240.97 655.085 241.162 654.233 241.162C653.357 241.162 652.559 240.946 651.839 240.514C651.131 240.082 650.573 239.476 650.165 238.696C649.757 237.916 649.553 237.028 649.553 236.032C649.553 235.024 649.757 234.142 650.165 233.386C650.573 232.618 651.131 232.024 651.839 231.604C652.559 231.184 653.357 230.974 654.233 230.974ZM657.905 236.05C657.905 235.306 657.755 234.658 657.455 234.106C657.155 233.554 656.747 233.134 656.231 232.846C655.727 232.546 655.169 232.396 654.557 232.396C653.945 232.396 653.387 232.54 652.883 232.828C652.379 233.116 651.977 233.536 651.677 234.088C651.377 234.64 651.227 235.288 651.227 236.032C651.227 236.788 651.377 237.448 651.677 238.012C651.977 238.564 652.379 238.99 652.883 239.29C653.387 239.578 653.945 239.722 654.557 239.722C655.169 239.722 655.727 239.578 656.231 239.29C656.747 238.99 657.155 238.564 657.455 238.012C657.755 237.448 657.905 236.794 657.905 236.05Z" fill="black"/>
<path d="M391.478 314.454V315.786H386.024V320.016H390.452V321.348H386.024V327H384.386V314.454H391.478ZM395.094 313.68V327H393.456V313.68H395.094ZM406.634 317.136V327H404.996V325.542C404.684 326.046 404.246 326.442 403.682 326.73C403.13 327.006 402.518 327.144 401.846 327.144C401.078 327.144 400.388 326.988 399.776 326.676C399.164 326.352 398.678 325.872 398.318 325.236C397.97 324.6 397.796 323.826 397.796 322.914V317.136H399.416V322.698C399.416 323.67 399.662 324.42 400.154 324.948C400.646 325.464 401.318 325.722 402.17 325.722C403.046 325.722 403.736 325.452 404.24 324.912C404.744 324.372 404.996 323.586 404.996 322.554V317.136H406.634ZM418.4 321.69C418.4 322.002 418.382 322.332 418.346 322.68H410.462C410.522 323.652 410.852 324.414 411.452 324.966C412.064 325.506 412.802 325.776 413.666 325.776C414.374 325.776 414.962 325.614 415.43 325.29C415.91 324.954 416.246 324.51 416.438 323.958H418.202C417.938 324.906 417.41 325.68 416.618 326.28C415.826 326.868 414.842 327.162 413.666 327.162C412.73 327.162 411.89 326.952 411.146 326.532C410.414 326.112 409.838 325.518 409.418 324.75C408.998 323.97 408.788 323.07 408.788 322.05C408.788 321.03 408.992 320.136 409.4 319.368C409.808 318.6 410.378 318.012 411.11 317.604C411.854 317.184 412.706 316.974 413.666 316.974C414.602 316.974 415.43 317.178 416.15 317.586C416.87 317.994 417.422 318.558 417.806 319.278C418.202 319.986 418.4 320.79 418.4 321.69ZM416.708 321.348C416.708 320.724 416.57 320.19 416.294 319.746C416.018 319.29 415.64 318.948 415.16 318.72C414.692 318.48 414.17 318.36 413.594 318.36C412.766 318.36 412.058 318.624 411.47 319.152C410.894 319.68 410.564 320.412 410.48 321.348H416.708ZM425.368 316.956C426.568 316.956 427.54 317.322 428.284 318.054C429.028 318.774 429.4 319.818 429.4 321.186V327H427.78V321.42C427.78 320.436 427.534 319.686 427.042 319.17C426.55 318.642 425.878 318.378 425.026 318.378C424.162 318.378 423.472 318.648 422.956 319.188C422.452 319.728 422.2 320.514 422.2 321.546V327H420.562V317.136H422.2V318.54C422.524 318.036 422.962 317.646 423.514 317.37C424.078 317.094 424.696 316.956 425.368 316.956ZM431.463 322.05C431.463 321.03 431.667 320.142 432.075 319.386C432.483 318.618 433.047 318.024 433.767 317.604C434.499 317.184 435.333 316.974 436.269 316.974C437.481 316.974 438.477 317.268 439.257 317.856C440.049 318.444 440.571 319.26 440.823 320.304H439.059C438.891 319.704 438.561 319.23 438.069 318.882C437.589 318.534 436.989 318.36 436.269 318.36C435.333 318.36 434.577 318.684 434.001 319.332C433.425 319.968 433.137 320.874 433.137 322.05C433.137 323.238 433.425 324.156 434.001 324.804C434.577 325.452 435.333 325.776 436.269 325.776C436.989 325.776 437.589 325.608 438.069 325.272C438.549 324.936 438.879 324.456 439.059 323.832H440.823C440.559 324.84 440.031 325.65 439.239 326.262C438.447 326.862 437.457 327.162 436.269 327.162C435.333 327.162 434.499 326.952 433.767 326.532C433.047 326.112 432.483 325.518 432.075 324.75C431.667 323.982 431.463 323.082 431.463 322.05ZM451.505 317.136L445.565 331.644H443.873L445.817 326.892L441.839 317.136H443.657L446.753 325.128L449.813 317.136H451.505ZM454.844 324.732L452.828 329.574H451.73L453.044 324.732H454.844ZM471.887 314.454L467.153 327H465.263L460.529 314.454H462.275L466.217 325.272L470.159 314.454H471.887ZM477.985 327.162C477.061 327.162 476.221 326.952 475.465 326.532C474.721 326.112 474.133 325.518 473.701 324.75C473.281 323.97 473.071 323.07 473.071 322.05C473.071 321.042 473.287 320.154 473.719 319.386C474.163 318.606 474.763 318.012 475.519 317.604C476.275 317.184 477.121 316.974 478.057 316.974C478.993 316.974 479.839 317.184 480.595 317.604C481.351 318.012 481.945 318.6 482.377 319.368C482.821 320.136 483.043 321.03 483.043 322.05C483.043 323.07 482.815 323.97 482.359 324.75C481.915 325.518 481.309 326.112 480.541 326.532C479.773 326.952 478.921 327.162 477.985 327.162ZM477.985 325.722C478.573 325.722 479.125 325.584 479.641 325.308C480.157 325.032 480.571 324.618 480.883 324.066C481.207 323.514 481.369 322.842 481.369 322.05C481.369 321.258 481.213 320.586 480.901 320.034C480.589 319.482 480.181 319.074 479.677 318.81C479.173 318.534 478.627 318.396 478.039 318.396C477.439 318.396 476.887 318.534 476.383 318.81C475.891 319.074 475.495 319.482 475.195 320.034C474.895 320.586 474.745 321.258 474.745 322.05C474.745 322.854 474.889 323.532 475.177 324.084C475.477 324.636 475.873 325.05 476.365 325.326C476.857 325.59 477.397 325.722 477.985 325.722ZM484.585 322.05C484.585 321.03 484.789 320.142 485.197 319.386C485.605 318.618 486.169 318.024 486.889 317.604C487.621 317.184 488.455 316.974 489.391 316.974C490.603 316.974 491.599 317.268 492.379 317.856C493.171 318.444 493.693 319.26 493.945 320.304H492.181C492.013 319.704 491.683 319.23 491.191 318.882C490.711 318.534 490.111 318.36 489.391 318.36C488.455 318.36 487.699 318.684 487.123 319.332C486.547 319.968 486.259 320.874 486.259 322.05C486.259 323.238 486.547 324.156 487.123 324.804C487.699 325.452 488.455 325.776 489.391 325.776C490.111 325.776 490.711 325.608 491.191 325.272C491.671 324.936 492.001 324.456 492.181 323.832H493.945C493.681 324.84 493.153 325.65 492.361 326.262C491.569 326.862 490.579 327.162 489.391 327.162C488.455 327.162 487.621 326.952 486.889 326.532C486.169 326.112 485.605 325.518 485.197 324.75C484.789 323.982 484.585 323.082 484.585 322.05ZM495.518 322.032C495.518 321.024 495.722 320.142 496.13 319.386C496.538 318.618 497.096 318.024 497.804 317.604C498.524 317.184 499.322 316.974 500.198 316.974C501.062 316.974 501.812 317.16 502.448 317.532C503.084 317.904 503.558 318.372 503.87 318.936V317.136H505.526V327H503.87V325.164C503.546 325.74 503.06 326.22 502.412 326.604C501.776 326.976 501.032 327.162 500.18 327.162C499.304 327.162 498.512 326.946 497.804 326.514C497.096 326.082 496.538 325.476 496.13 324.696C495.722 323.916 495.518 323.028 495.518 322.032ZM503.87 322.05C503.87 321.306 503.72 320.658 503.42 320.106C503.12 319.554 502.712 319.134 502.196 318.846C501.692 318.546 501.134 318.396 500.522 318.396C499.91 318.396 499.352 318.54 498.848 318.828C498.344 319.116 497.942 319.536 497.642 320.088C497.342 320.64 497.192 321.288 497.192 322.032C497.192 322.788 497.342 323.448 497.642 324.012C497.942 324.564 498.344 324.99 498.848 325.29C499.352 325.578 499.91 325.722 500.522 325.722C501.134 325.722 501.692 325.578 502.196 325.29C502.712 324.99 503.12 324.564 503.42 324.012C503.72 323.448 503.87 322.794 503.87 322.05ZM509.932 318.972C510.268 318.384 510.76 317.904 511.408 317.532C512.056 317.16 512.794 316.974 513.622 316.974C514.51 316.974 515.308 317.184 516.016 317.604C516.724 318.024 517.282 318.618 517.69 319.386C518.098 320.142 518.302 321.024 518.302 322.032C518.302 323.028 518.098 323.916 517.69 324.696C517.282 325.476 516.718 326.082 515.998 326.514C515.29 326.946 514.498 327.162 513.622 327.162C512.77 327.162 512.02 326.976 511.372 326.604C510.736 326.232 510.256 325.758 509.932 325.182V327H508.294V313.68H509.932V318.972ZM516.628 322.032C516.628 321.288 516.478 320.64 516.178 320.088C515.878 319.536 515.47 319.116 514.954 318.828C514.45 318.54 513.892 318.396 513.28 318.396C512.68 318.396 512.122 318.546 511.606 318.846C511.102 319.134 510.694 319.56 510.382 320.124C510.082 320.676 509.932 321.318 509.932 322.05C509.932 322.794 510.082 323.448 510.382 324.012C510.694 324.564 511.102 324.99 511.606 325.29C512.122 325.578 512.68 325.722 513.28 325.722C513.892 325.722 514.45 325.578 514.954 325.29C515.47 324.99 515.878 324.564 516.178 324.012C516.478 323.448 516.628 322.788 516.628 322.032ZM529.206 317.136V327H527.568V325.542C527.256 326.046 526.818 326.442 526.254 326.73C525.702 327.006 525.09 327.144 524.418 327.144C523.65 327.144 522.96 326.988 522.348 326.676C521.736 326.352 521.25 325.872 520.89 325.236C520.542 324.6 520.368 323.826 520.368 322.914V317.136H521.988V322.698C521.988 323.67 522.234 324.42 522.726 324.948C523.218 325.464 523.89 325.722 524.742 325.722C525.618 325.722 526.308 325.452 526.812 324.912C527.316 324.372 527.568 323.586 527.568 322.554V317.136H529.206ZM533.61 313.68V327H531.972V313.68H533.61ZM535.79 322.032C535.79 321.024 535.994 320.142 536.402 319.386C536.81 318.618 537.368 318.024 538.076 317.604C538.796 317.184 539.594 316.974 540.47 316.974C541.334 316.974 542.084 317.16 542.72 317.532C543.356 317.904 543.83 318.372 544.142 318.936V317.136H545.798V327H544.142V325.164C543.818 325.74 543.332 326.22 542.684 326.604C542.048 326.976 541.304 327.162 540.452 327.162C539.576 327.162 538.784 326.946 538.076 326.514C537.368 326.082 536.81 325.476 536.402 324.696C535.994 323.916 535.79 323.028 535.79 322.032ZM544.142 322.05C544.142 321.306 543.992 320.658 543.692 320.106C543.392 319.554 542.984 319.134 542.468 318.846C541.964 318.546 541.406 318.396 540.794 318.396C540.182 318.396 539.624 318.54 539.12 318.828C538.616 319.116 538.214 319.536 537.914 320.088C537.614 320.64 537.464 321.288 537.464 322.032C537.464 322.788 537.614 323.448 537.914 324.012C538.214 324.564 538.616 324.99 539.12 325.29C539.624 325.578 540.182 325.722 540.794 325.722C541.406 325.722 541.964 325.578 542.468 325.29C542.984 324.99 543.392 324.564 543.692 324.012C543.992 323.448 544.142 322.794 544.142 322.05ZM550.204 318.738C550.492 318.174 550.9 317.736 551.428 317.424C551.968 317.112 552.622 316.956 553.39 316.956V318.648H552.958C551.122 318.648 550.204 319.644 550.204 321.636V327H548.566V317.136H550.204V318.738ZM563.777 317.136L557.837 331.644H556.145L558.089 326.892L554.111 317.136H555.929L559.025 325.128L562.085 317.136H563.777ZM567.115 324.732L565.099 329.574H564.001L565.315 324.732H567.115ZM573.178 320.718C573.178 319.494 573.454 318.396 574.006 317.424C574.558 316.44 575.308 315.672 576.256 315.12C577.216 314.568 578.278 314.292 579.442 314.292C580.81 314.292 582.004 314.622 583.024 315.282C584.044 315.942 584.788 316.878 585.256 318.09H583.294C582.946 317.334 582.442 316.752 581.782 316.344C581.134 315.936 580.354 315.732 579.442 315.732C578.566 315.732 577.78 315.936 577.084 316.344C576.388 316.752 575.842 317.334 575.446 318.09C575.05 318.834 574.852 319.71 574.852 320.718C574.852 321.714 575.05 322.59 575.446 323.346C575.842 324.09 576.388 324.666 577.084 325.074C577.78 325.482 578.566 325.686 579.442 325.686C580.354 325.686 581.134 325.488 581.782 325.092C582.442 324.684 582.946 324.102 583.294 323.346H585.256C584.788 324.546 584.044 325.476 583.024 326.136C582.004 326.784 580.81 327.108 579.442 327.108C578.278 327.108 577.216 326.838 576.256 326.298C575.308 325.746 574.558 324.984 574.006 324.012C573.454 323.04 573.178 321.942 573.178 320.718ZM589.333 318.738C589.621 318.174 590.029 317.736 590.557 317.424C591.097 317.112 591.751 316.956 592.519 316.956V318.648H592.087C590.251 318.648 589.333 319.644 589.333 321.636V327H587.695V317.136H589.333V318.738ZM598.711 327.162C597.787 327.162 596.947 326.952 596.191 326.532C595.447 326.112 594.859 325.518 594.427 324.75C594.007 323.97 593.797 323.07 593.797 322.05C593.797 321.042 594.013 320.154 594.445 319.386C594.889 318.606 595.489 318.012 596.245 317.604C597.001 317.184 597.847 316.974 598.783 316.974C599.719 316.974 600.565 317.184 601.321 317.604C602.077 318.012 602.671 318.6 603.103 319.368C603.547 320.136 603.769 321.03 603.769 322.05C603.769 323.07 603.541 323.97 603.085 324.75C602.641 325.518 602.035 326.112 601.267 326.532C600.499 326.952 599.647 327.162 598.711 327.162ZM598.711 325.722C599.299 325.722 599.851 325.584 600.367 325.308C600.883 325.032 601.297 324.618 601.609 324.066C601.933 323.514 602.095 322.842 602.095 322.05C602.095 321.258 601.939 320.586 601.627 320.034C601.315 319.482 600.907 319.074 600.403 318.81C599.899 318.534 599.353 318.396 598.765 318.396C598.165 318.396 597.613 318.534 597.109 318.81C596.617 319.074 596.221 319.482 595.921 320.034C595.621 320.586 595.471 321.258 595.471 322.05C595.471 322.854 595.615 323.532 595.903 324.084C596.203 324.636 596.599 325.05 597.091 325.326C597.583 325.59 598.123 325.722 598.711 325.722ZM609.415 327.162C608.659 327.162 607.981 327.036 607.381 326.784C606.781 326.52 606.307 326.16 605.959 325.704C605.611 325.236 605.419 324.702 605.383 324.102H607.075C607.123 324.594 607.351 324.996 607.759 325.308C608.179 325.62 608.725 325.776 609.397 325.776C610.021 325.776 610.513 325.638 610.873 325.362C611.233 325.086 611.413 324.738 611.413 324.318C611.413 323.886 611.221 323.568 610.837 323.364C610.453 323.148 609.859 322.938 609.055 322.734C608.323 322.542 607.723 322.35 607.255 322.158C606.799 321.954 606.403 321.66 606.067 321.276C605.743 320.88 605.581 320.364 605.581 319.728C605.581 319.224 605.731 318.762 606.031 318.342C606.331 317.922 606.757 317.592 607.309 317.352C607.861 317.1 608.491 316.974 609.199 316.974C610.291 316.974 611.173 317.25 611.845 317.802C612.517 318.354 612.877 319.11 612.925 320.07H611.287C611.251 319.554 611.041 319.14 610.657 318.828C610.285 318.516 609.781 318.36 609.145 318.36C608.557 318.36 608.089 318.486 607.741 318.738C607.393 318.99 607.219 319.32 607.219 319.728C607.219 320.052 607.321 320.322 607.525 320.538C607.741 320.742 608.005 320.91 608.317 321.042C608.641 321.162 609.085 321.3 609.649 321.456C610.357 321.648 610.933 321.84 611.377 322.032C611.821 322.212 612.199 322.488 612.511 322.86C612.835 323.232 613.003 323.718 613.015 324.318C613.015 324.858 612.865 325.344 612.565 325.776C612.265 326.208 611.839 326.55 611.287 326.802C610.747 327.042 610.123 327.162 609.415 327.162ZM618.819 327.162C618.063 327.162 617.385 327.036 616.785 326.784C616.185 326.52 615.711 326.16 615.363 325.704C615.015 325.236 614.823 324.702 614.787 324.102H616.479C616.527 324.594 616.755 324.996 617.163 325.308C617.583 325.62 618.129 325.776 618.801 325.776C619.425 325.776 619.917 325.638 620.277 325.362C620.637 325.086 620.817 324.738 620.817 324.318C620.817 323.886 620.625 323.568 620.241 323.364C619.857 323.148 619.263 322.938 618.459 322.734C617.727 322.542 617.127 322.35 616.659 322.158C616.203 321.954 615.807 321.66 615.471 321.276C615.147 320.88 614.985 320.364 614.985 319.728C614.985 319.224 615.135 318.762 615.435 318.342C615.735 317.922 616.161 317.592 616.713 317.352C617.265 317.1 617.895 316.974 618.603 316.974C619.695 316.974 620.577 317.25 621.249 317.802C621.921 318.354 622.281 319.11 622.329 320.07H620.691C620.655 319.554 620.445 319.14 620.061 318.828C619.689 318.516 619.185 318.36 618.549 318.36C617.961 318.36 617.493 318.486 617.145 318.738C616.797 318.99 616.623 319.32 616.623 319.728C616.623 320.052 616.725 320.322 616.929 320.538C617.145 320.742 617.409 320.91 617.721 321.042C618.045 321.162 618.489 321.3 619.053 321.456C619.761 321.648 620.337 321.84 620.781 322.032C621.225 322.212 621.603 322.488 621.915 322.86C622.239 323.232 622.407 323.718 622.419 324.318C622.419 324.858 622.269 325.344 621.969 325.776C621.669 326.208 621.243 326.55 620.691 326.802C620.151 327.042 619.527 327.162 618.819 327.162ZM631.572 319.71V321.096H624.39V319.71H631.572ZM634.034 320.718C634.034 319.494 634.31 318.396 634.862 317.424C635.414 316.44 636.164 315.672 637.112 315.12C638.072 314.568 639.134 314.292 640.298 314.292C641.666 314.292 642.86 314.622 643.88 315.282C644.9 315.942 645.644 316.878 646.112 318.09H644.15C643.802 317.334 643.298 316.752 642.638 316.344C641.99 315.936 641.21 315.732 640.298 315.732C639.422 315.732 638.636 315.936 637.94 316.344C637.244 316.752 636.698 317.334 636.302 318.09C635.906 318.834 635.708 319.71 635.708 320.718C635.708 321.714 635.906 322.59 636.302 323.346C636.698 324.09 637.244 324.666 637.94 325.074C638.636 325.482 639.422 325.686 640.298 325.686C641.21 325.686 641.99 325.488 642.638 325.092C643.298 324.684 643.802 324.102 644.15 323.346H646.112C645.644 324.546 644.9 325.476 643.88 326.136C642.86 326.784 641.666 327.108 640.298 327.108C639.134 327.108 638.072 326.838 637.112 326.298C636.164 325.746 635.414 324.984 634.862 324.012C634.31 323.04 634.034 321.942 634.034 320.718ZM657.298 317.136V327H655.66V325.542C655.348 326.046 654.91 326.442 654.346 326.73C653.794 327.006 653.182 327.144 652.51 327.144C651.742 327.144 651.052 326.988 650.44 326.676C649.828 326.352 649.342 325.872 648.982 325.236C648.634 324.6 648.46 323.826 648.46 322.914V317.136H650.08V322.698C650.08 323.67 650.326 324.42 650.818 324.948C651.31 325.464 651.982 325.722 652.834 325.722C653.71 325.722 654.4 325.452 654.904 324.912C655.408 324.372 655.66 323.586 655.66 322.554V317.136H657.298ZM661.702 313.68V327H660.064V313.68H661.702ZM666.491 318.486V324.3C666.491 324.78 666.593 325.122 666.797 325.326C667.001 325.518 667.355 325.614 667.859 325.614H669.065V327H667.589C666.677 327 665.993 326.79 665.537 326.37C665.081 325.95 664.853 325.26 664.853 324.3V318.486H663.575V317.136H664.853V314.652H666.491V317.136H669.065V318.486H666.491ZM679.798 317.136V327H678.16V325.542C677.848 326.046 677.41 326.442 676.846 326.73C676.294 327.006 675.682 327.144 675.01 327.144C674.242 327.144 673.552 326.988 672.94 326.676C672.328 326.352 671.842 325.872 671.482 325.236C671.134 324.6 670.96 323.826 670.96 322.914V317.136H672.58V322.698C672.58 323.67 672.826 324.42 673.318 324.948C673.81 325.464 674.482 325.722 675.334 325.722C676.21 325.722 676.9 325.452 677.404 324.912C677.908 324.372 678.16 323.586 678.16 322.554V317.136H679.798ZM684.202 318.738C684.49 318.174 684.898 317.736 685.426 317.424C685.966 317.112 686.62 316.956 687.388 316.956V318.648H686.956C685.12 318.648 684.202 319.644 684.202 321.636V327H682.564V317.136H684.202V318.738ZM698.279 321.69C698.279 322.002 698.261 322.332 698.225 322.68H690.341C690.401 323.652 690.731 324.414 691.331 324.966C691.943 325.506 692.681 325.776 693.545 325.776C694.253 325.776 694.841 325.614 695.309 325.29C695.789 324.954 696.125 324.51 696.317 323.958H698.081C697.817 324.906 697.289 325.68 696.497 326.28C695.705 326.868 694.721 327.162 693.545 327.162C692.609 327.162 691.769 326.952 691.025 326.532C690.293 326.112 689.717 325.518 689.297 324.75C688.877 323.97 688.667 323.07 688.667 322.05C688.667 321.03 688.871 320.136 689.279 319.368C689.687 318.6 690.257 318.012 690.989 317.604C691.733 317.184 692.585 316.974 693.545 316.974C694.481 316.974 695.309 317.178 696.029 317.586C696.749 317.994 697.301 318.558 697.685 319.278C698.081 319.986 698.279 320.79 698.279 321.69ZM696.587 321.348C696.587 320.724 696.449 320.19 696.173 319.746C695.897 319.29 695.519 318.948 695.039 318.72C694.571 318.48 694.049 318.36 693.473 318.36C692.645 318.36 691.937 318.624 691.349 319.152C690.773 319.68 690.443 320.412 690.359 321.348H696.587Z" fill="black"/>
<rect x="384" y="365" width="331" height="60" rx="1" stroke="black" stroke-width="2"/>
<path d="M510.204 391.196C510.204 392.82 509.644 394.173 508.524 395.256C507.423 396.32 505.733 396.852 503.456 396.852H499.704V405H497.156V385.484H503.456C505.659 385.484 507.329 386.016 508.468 387.08C509.625 388.144 510.204 389.516 510.204 391.196ZM503.456 394.752C504.875 394.752 505.92 394.444 506.592 393.828C507.264 393.212 507.6 392.335 507.6 391.196C507.6 388.788 506.219 387.584 503.456 387.584H499.704V394.752H503.456ZM524.907 400.66H516.395L514.827 405H512.139L519.195 385.596H522.135L529.163 405H526.475L524.907 400.66ZM524.179 398.588L520.651 388.732L517.123 398.588H524.179ZM538.426 405.196C537.138 405.196 535.981 404.972 534.954 404.524C533.946 404.057 533.153 403.423 532.574 402.62C531.995 401.799 531.697 400.856 531.678 399.792H534.394C534.487 400.707 534.861 401.481 535.514 402.116C536.186 402.732 537.157 403.04 538.426 403.04C539.639 403.04 540.591 402.741 541.282 402.144C541.991 401.528 542.346 400.744 542.346 399.792C542.346 399.045 542.141 398.439 541.73 397.972C541.319 397.505 540.806 397.151 540.19 396.908C539.574 396.665 538.743 396.404 537.698 396.124C536.41 395.788 535.374 395.452 534.59 395.116C533.825 394.78 533.162 394.257 532.602 393.548C532.061 392.82 531.79 391.849 531.79 390.636C531.79 389.572 532.061 388.629 532.602 387.808C533.143 386.987 533.899 386.352 534.87 385.904C535.859 385.456 536.989 385.232 538.258 385.232C540.087 385.232 541.581 385.689 542.738 386.604C543.914 387.519 544.577 388.732 544.726 390.244H541.926C541.833 389.497 541.441 388.844 540.75 388.284C540.059 387.705 539.145 387.416 538.006 387.416C536.942 387.416 536.074 387.696 535.402 388.256C534.73 388.797 534.394 389.563 534.394 390.552C534.394 391.261 534.59 391.84 534.982 392.288C535.393 392.736 535.887 393.081 536.466 393.324C537.063 393.548 537.894 393.809 538.958 394.108C540.246 394.463 541.282 394.817 542.066 395.172C542.85 395.508 543.522 396.04 544.082 396.768C544.642 397.477 544.922 398.448 544.922 399.68C544.922 400.632 544.67 401.528 544.166 402.368C543.662 403.208 542.915 403.889 541.926 404.412C540.937 404.935 539.77 405.196 538.426 405.196ZM554.86 405.196C553.572 405.196 552.414 404.972 551.388 404.524C550.38 404.057 549.586 403.423 549.008 402.62C548.429 401.799 548.13 400.856 548.112 399.792H550.828C550.921 400.707 551.294 401.481 551.948 402.116C552.62 402.732 553.59 403.04 554.86 403.04C556.073 403.04 557.025 402.741 557.716 402.144C558.425 401.528 558.78 400.744 558.78 399.792C558.78 399.045 558.574 398.439 558.164 397.972C557.753 397.505 557.24 397.151 556.624 396.908C556.008 396.665 555.177 396.404 554.132 396.124C552.844 395.788 551.808 395.452 551.024 395.116C550.258 394.78 549.596 394.257 549.036 393.548C548.494 392.82 548.224 391.849 548.224 390.636C548.224 389.572 548.494 388.629 549.036 387.808C549.577 386.987 550.333 386.352 551.304 385.904C552.293 385.456 553.422 385.232 554.692 385.232C556.521 385.232 558.014 385.689 559.172 386.604C560.348 387.519 561.01 388.732 561.16 390.244H558.36C558.266 389.497 557.874 388.844 557.184 388.284C556.493 387.705 555.578 387.416 554.44 387.416C553.376 387.416 552.508 387.696 551.836 388.256C551.164 388.797 550.828 389.563 550.828 390.552C550.828 391.261 551.024 391.84 551.416 392.288C551.826 392.736 552.321 393.081 552.9 393.324C553.497 393.548 554.328 393.809 555.392 394.108C556.68 394.463 557.716 394.817 558.5 395.172C559.284 395.508 559.956 396.04 560.516 396.768C561.076 397.477 561.356 398.448 561.356 399.68C561.356 400.632 561.104 401.528 560.6 402.368C560.096 403.208 559.349 403.889 558.36 404.412C557.37 404.935 556.204 405.196 554.86 405.196Z" fill="#6CBD2C"/>
<path d="M580.476 392.75L589.143 401.5L586.667 404L578 395.25L580.476 392.75Z" fill="#6CBD2C"/>
<path d="M586.667 399L601.524 384L604 386.5L589.143 401.5L586.667 399Z" fill="#6CBD2C"/>
</svg>
